<?xml version="1.0" encoding="UTF-8" standalone="no"?><!DOCTYPE svg PUBLIC "-//W3C//DTD SVG 1.1//EN" "http://www.w3.org/Graphics/SVG/1.1/DTD/svg11.dtd"><svg width="100%" height="100%" viewBox="0 0 24 24" version="1.1" xmlns="http://www.w3.org/2000/svg" xmlns:xlink="http://www.w3.org/1999/xlink" xml:space="preserve" xmlns:serif="http://www.serif.com/" style="fill-rule:evenodd;clip-rule:evenodd;stroke-linejoin:round;stroke-miterlimit:2;"><rect id="innovation" x="0" y="0" width="24" height="24" style="fill:none;"/><path d="M12,22c-0.433,0 -0.825,-0.104 -1.175,-0.312c-0.35,-0.208 -0.625,-0.488 -0.825,-0.837c-0.55,0 -1.021,-0.196 -1.412,-0.588c-0.392,-0.392 -0.588,-0.863 -0.588,-1.412l0,-3.55c-0.983,-0.65 -1.771,-1.508 -2.362,-2.575c-0.592,-1.067 -0.888,-2.225 -0.888,-3.475c0,-2.017 0.704,-3.729 2.113,-5.138c1.408,-1.408 3.121,-2.112 5.137,-2.112c2.017,0 3.729,0.704 5.137,2.112c1.408,1.408 2.113,3.121 2.113,5.138c0,1.283 -0.296,2.45 -0.887,3.5c-0.592,1.05 -1.379,1.9 -2.363,2.55l0,3.55c0,0.55 -0.196,1.021 -0.587,1.412c-0.392,0.392 -0.863,0.588 -1.413,0.588c-0.2,0.35 -0.475,0.629 -0.825,0.837c-0.35,0.208 -0.742,0.312 -1.175,0.312Zm-2,-3.15l4,0l0,-0.9l-4,0l0,0.9Zm0,-1.9l4,0l0,-0.95l-4,0l0,0.95Zm-0.2,-2.95l1.45,0l0,-2.7l-2.2,-2.2l1.05,-1.05l1.9,1.9l1.9,-1.9l1.05,1.05l-2.2,2.2l0,2.7l1.45,0c0.9,-0.433 1.633,-1.071 2.2,-1.913c0.567,-0.842 0.85,-1.787 0.85,-2.837c0,-1.467 -0.508,-2.708 -1.525,-3.725c-1.017,-1.017 -2.258,-1.525 -3.725,-1.525c-1.467,0 -2.708,0.508 -3.725,1.525c-1.017,1.017 -1.525,2.258 -1.525,3.725c0,1.05 0.283,1.996 0.85,2.837c0.567,0.842 1.3,1.479 2.2,1.913Z" style="fill-rule:nonzero;"/></svg>