<?xml version="1.0" encoding="UTF-8"?>

<svg enable-background="new 0 0 24 24" version="1.1" viewBox="0 0 24 24" xml:space="preserve" xmlns="http://www.w3.org/2000/svg">
<g id="surface1">
<path fill="#3F3F3F" d="M 14.25 20.199219 L 9.375 20.199219 C 9.167969 20.199219 9 20.367188 9 20.574219 C 9 20.78125 9.167969 20.949219 9.375 20.949219 L 14.25 20.949219 C 14.457031 20.949219 14.625 20.78125 14.625 20.574219 C 14.625 20.367188 14.457031 20.199219 14.25 20.199219 Z M 14.25 20.199219 "/>
  <path fill="#3F3F3F" d="M 14.25 21.726562 L 9.375 21.726562 C 9.167969 21.726562 9 21.894531 9 22.101562 C 9 22.308594 9.167969 22.476562 9.375 22.476562 L 14.25 22.476562 C 14.457031 22.476562 14.625 22.308594 14.625 22.101562 C 14.625 21.894531 14.457031 21.726562 14.25 21.726562 Z M 14.25 21.726562 "/>
  <path fill="#3F3F3F" d="M 12.953125 23.25 L 10.667969 23.25 C 10.457031 23.25 10.289062 23.417969 10.289062 23.625 C 10.289062 23.832031 10.457031 24 10.667969 24 L 12.953125 24 C 13.160156 24 13.328125 23.832031 13.328125 23.625 C 13.328125 23.417969 13.160156 23.25 12.953125 23.25 Z M 12.953125 23.25 "/>
  <path fill="#3F3F3F" d="M 12 0 C 7.90625 0 4.574219 3.332031 4.574219 7.425781 C 4.574219 8.933594 5.027344 10.371094 5.882812 11.589844 C 6.660156 12.695312 7.734375 13.566406 9 14.125 L 9 16.007812 L 8.625 16.007812 C 8.417969 16.007812 8.25 16.175781 8.25 16.382812 L 8.25 19.050781 C 8.25 19.257812 8.417969 19.425781 8.625 19.425781 L 15 19.425781 C 15.207031 19.425781 15.375 19.257812 15.375 19.050781 L 15.375 16.382812 C 15.375 16.175781 15.207031 16.007812 15 16.007812 L 14.625 16.007812 L 14.625 14.140625 C 15.988281 13.628906 17.152344 12.789062 17.996094 11.691406 C 18.929688 10.476562 19.425781 9 19.425781 7.425781 C 19.425781 3.332031 16.09375 0 12 0 Z M 14.625 18.675781 L 9 18.675781 L 9 16.757812 L 14.625 16.757812 Z M 17.398438 11.234375 C 16.59375 12.28125 15.464844 13.070312 14.128906 13.519531 C 13.972656 13.570312 13.875 13.71875 13.875 13.875 L 13.875 16.007812 L 13.125 16.007812 L 13.125 9.375 C 13.125 9.167969 12.957031 9 12.75 9 C 12.542969 9 12.375 9.167969 12.375 9.375 L 12.375 16.007812 L 11.25 16.007812 L 11.25 9.375 C 11.25 9.167969 11.082031 9 10.875 9 C 10.667969 9 10.5 9.167969 10.5 9.375 L 10.5 16.007812 L 9.75 16.007812 L 9.75 13.875 C 9.75 13.726562 9.660156 13.585938 9.515625 13.527344 C 8.285156 13.03125 7.238281 12.214844 6.496094 11.15625 C 5.730469 10.066406 5.324219 8.777344 5.324219 7.425781 C 5.324219 3.746094 8.320312 0.75 12 0.75 C 15.679688 0.75 18.675781 3.746094 18.675781 7.425781 C 18.675781 8.832031 18.234375 10.148438 17.398438 11.234375 Z M 17.398438 11.234375 "/>
  <path fill="#3F3F3F" d="M 12.449219 2.25 C 12.449219 2.042969 12.28125 1.875 12.074219 1.875 C 10.226562 1.875 8.492188 2.863281 7.550781 4.457031 C 7.445312 4.632812 7.503906 4.863281 7.683594 4.96875 C 7.742188 5.003906 7.808594 5.023438 7.875 5.023438 C 8.003906 5.023438 8.128906 4.957031 8.199219 4.835938 C 9.003906 3.472656 10.492188 2.625 12.074219 2.625 C 12.28125 2.625 12.449219 2.457031 12.449219 2.25 Z M 12.449219 2.25 "/>
  <path fill="#3F3F3F" d="M 7.414062 5.636719 C 7.214844 5.585938 7.011719 5.710938 6.964844 5.914062 C 6.871094 6.308594 6.824219 6.714844 6.824219 7.125 C 6.824219 7.332031 6.992188 7.5 7.199219 7.5 C 7.40625 7.5 7.574219 7.332031 7.574219 7.125 C 7.574219 6.773438 7.613281 6.425781 7.695312 6.085938 C 7.742188 5.882812 7.617188 5.683594 7.414062 5.636719 Z M 7.414062 5.636719 "/>
  <path fill="#3F3F3F" d="M 13.453125 7.234375 C 13.382812 7.164062 13.285156 7.125 13.1875 7.125 C 13.089844 7.125 12.992188 7.164062 12.921875 7.234375 L 12.5 7.65625 L 12.078125 7.234375 C 12.007812 7.164062 11.910156 7.125 11.8125 7.125 C 11.714844 7.125 11.617188 7.164062 11.546875 7.234375 L 11.125 7.65625 L 10.703125 7.234375 C 10.632812 7.164062 10.535156 7.125 10.4375 7.125 C 10.339844 7.125 10.242188 7.164062 10.171875 7.234375 L 9.484375 7.921875 C 9.339844 8.070312 9.339844 8.304688 9.484375 8.453125 C 9.632812 8.597656 9.867188 8.597656 10.015625 8.453125 L 10.4375 8.03125 L 10.859375 8.453125 C 10.929688 8.523438 11.027344 8.5625 11.125 8.5625 C 11.222656 8.5625 11.320312 8.523438 11.390625 8.453125 L 11.8125 8.03125 L 12.234375 8.453125 C 12.304688 8.523438 12.402344 8.5625 12.5 8.5625 C 12.597656 8.5625 12.695312 8.523438 12.765625 8.453125 L 13.1875 8.03125 L 13.609375 8.453125 C 13.683594 8.527344 13.777344 8.5625 13.875 8.5625 C 13.972656 8.5625 14.066406 8.527344 14.140625 8.453125 C 14.285156 8.304688 14.285156 8.070312 14.140625 7.921875 Z M 13.453125 7.234375 "/>
</g>
</svg>

