<?xml version="1.0" encoding="UTF-8"?>

<svg enable-background="new 0 0 24 24" version="1.1" viewBox="0 0 24 24" xml:space="preserve" xmlns="http://www.w3.org/2000/svg">
<path fill="#3F3F3F" d="M 22.5 12 L 12.75 12 L 12.75 6.644531 C 14.039062 6.308594 15 5.144531 15 3.75 C 15 2.09375 13.65625 0.75 12 0.75 C 10.34375 0.75 9 2.09375 9 3.75 C 9 5.144531 9.960938 6.308594 11.25 6.644531 L 11.25 12 L 1.5 12 C 1.085938 12 0.75 12.335938 0.75 12.75 L 0.75 22.5 C 0.75 22.914062 1.085938 23.25 1.5 23.25 C 1.914062 23.25 2.25 22.914062 2.25 22.5 L 2.25 13.5 L 7.5 13.5 L 7.5 22.5 C 7.5 22.914062 7.835938 23.25 8.25 23.25 C 8.664062 23.25 9 22.914062 9 22.5 L 9 13.5 L 15 13.5 L 15 22.5 C 15 22.914062 15.335938 23.25 15.75 23.25 C 16.164062 23.25 16.5 22.914062 16.5 22.5 L 16.5 13.5 L 21.75 13.5 L 21.75 22.5 C 21.75 22.914062 22.085938 23.25 22.5 23.25 C 22.914062 23.25 23.25 22.914062 23.25 22.5 L 23.25 12.75 C 23.25 12.335938 22.914062 12 22.5 12 Z M 10.5 3.75 C 10.5 2.925781 11.175781 2.25 12 2.25 C 12.824219 2.25 13.5 2.925781 13.5 3.75 C 13.5 4.574219 12.824219 5.25 12 5.25 C 11.175781 5.25 10.5 4.574219 10.5 3.75 Z M 10.5 3.75 "/>
</svg>
